<?xml version="1.0" ?><!DOCTYPE svg  PUBLIC '-//W3C//DTD SVG 1.1//EN'  'http://www.w3.org/Graphics/SVG/1.1/DTD/svg11.dtd'><svg enable-background="new 0 0 283.46 283.46" height="283.46px" id="Ebene_1" version="1.1" viewBox="0 0 283.46 283.46" width="283.46px" xml:space="preserve" xmlns="http://www.w3.org/2000/svg" xmlns:xlink="http://www.w3.org/1999/xlink"><g><path d="M99.738,125.344   c9.684,7.383,20.508,14.188,20.645,27.441c0.117,11.297-11.75,24.148-17.777,33.074" fill="none" stroke="#CE2A2A" stroke-miterlimit="10" stroke-width="8.8337"/><path d="M129.773,64.16   c-8.688,12.93-14.637,27.402-21.07,41.535c-6.832,14.98-14.688,30.312-19.113,46.23c-3.52,12.645,9.531,26.777,15.145,37.246   c7.406,13.797,15.449,27.176,24.934,39.676c10.688,14.094,27.707,17.707,43.062,7.766c15.152-9.816,17.551-25.234,12.836-41.406   c-2.758-9.426-6.301-18.605-10-27.688c-3.176-7.754-5.508-12.93-3.406-21.309c3.359-13.398,10.699-25.664,17.574-37.508   c2.734-4.707,4.645-9.914,6.082-15.168C172.457,87.207,151.281,74.914,129.773,64.16z" fill="none" stroke="#CE2A2A" stroke-miterlimit="10" stroke-width="8.8337"/><path d="M114.973,92.09   c10.164,6.809,20.715,14.387,32.121,18.945c11.336,4.543,23.441,7.5,35.246,10.547" fill="none" stroke="#CE2A2A" stroke-miterlimit="10" stroke-width="8.8337"/><path d="M127.129,225.625   c6.531-7.938,14.781-19.297,24.637-23.105c9.906-3.836,24.102-1.629,34.555-1.199" fill="none" stroke="#CE2A2A" stroke-miterlimit="10" stroke-width="8.8337"/><path d="M129.012,61.633   c4.637-10.402,9.371-31.602-5.465-28.879C101.93,36.738,121.645,55.645,129.012,61.633z" fill="none" stroke="#CE2A2A" stroke-miterlimit="10" stroke-width="8.8337"/></g></svg>